<svg width="72" height="57" viewBox="0 0 72 57" fill="none" xmlns="http://www.w3.org/2000/svg">
<path d="M56.3451 57C53.9845 57 51.8309 56.5575 49.8844 55.6726C47.9379 54.7356 46.2813 53.4603 44.9146 51.8466C43.5479 50.1808 42.4711 48.1767 41.6842 45.8342C40.9387 43.4918 40.566 40.889 40.566 38.026C40.566 35.0589 40.9802 31.9616 41.8085 28.7342C42.6782 25.5068 43.9206 22.2534 45.5358 18.974C47.151 15.6945 49.0975 12.4671 51.3753 9.29178C53.6946 6.06438 56.3244 2.96712 59.2649 0L66.409 7.0274C65.0423 8.79726 63.7998 10.489 62.6816 12.1027C61.6048 13.7164 60.6109 15.3301 59.6997 16.9438C58.7886 18.5575 57.9396 20.2233 57.1527 21.9411C56.4072 23.6589 55.7239 25.4808 55.1027 27.4068L72 38.026C72 40.837 71.5651 43.4137 70.6954 45.7562C69.8671 48.0986 68.7489 50.1027 67.3408 51.7685C65.9327 53.4342 64.2761 54.7356 62.371 55.6726C60.4659 56.5575 58.4573 57 56.3451 57ZM15.7791 57C13.4185 57 11.2649 56.5575 9.31838 55.6726C7.37187 54.7356 5.71527 53.4603 4.34858 51.8466C2.98188 50.1808 1.90509 48.1767 1.11821 45.8342C0.372735 43.4918 0 40.889 0 38.026C0 35.0589 0.41415 31.9616 1.24245 28.7342C2.11217 25.5068 3.35462 22.2534 4.9698 18.974C6.58499 15.6945 8.53149 12.4671 10.8093 9.29178C13.1286 6.06438 15.7584 2.96712 18.6989 0L25.843 7.0274C24.4763 8.79726 23.2338 10.489 22.1156 12.1027C21.0388 13.7164 20.0449 15.3301 19.1337 16.9438C18.2226 18.5575 17.3736 20.2233 16.5867 21.9411C15.8412 23.6589 15.1579 25.4808 14.5367 27.4068L31.434 38.026C31.434 40.837 30.9991 43.4137 30.1294 45.7562C29.3011 48.0986 28.1829 50.1027 26.7748 51.7685C25.3667 53.4342 23.7101 54.7356 21.805 55.6726C19.8999 56.5575 17.8913 57 15.7791 57Z" fill="#58BA96"/>
</svg>
